<svg xmlns="http://www.w3.org/2000/svg" width="2560" height="1765" viewBox="0 0 2560 1765" fill="none">
<g clip-path="url(#clip0_101_2)">
<path d="M1554.37 1166.96C1554.48 1222.91 1554.39 1277.86 1554.36 1332.82C1554.36 1340.03 1554.52 1340.15 1562.39 1340.15C1614.35 1340.19 1666.31 1340.17 1718.27 1340.17C1730.49 1340.17 1730.38 1340.2 1732.28 1352C1739.92 1399.44 1747.69 1446.87 1755.31 1494.32C1761.62 1533.59 1767.72 1572.89 1774.01 1612.16C1780.36 1651.76 1787.12 1691.29 1793.07 1730.94C1794.83 1742.66 1798.52 1754.2 1797.83 1767.14C1453.29 1768 1108.58 1768 762.937 1768C762.791 1752.43 766.265 1737.23 768.612 1721.89C774.773 1681.62 781.518 1641.43 788.031 1601.21C795.816 1553.14 803.667 1505.08 811.365 1456.99C817.126 1421.01 822.71 1384.99 828.326 1348.98C829.69 1340.24 829.605 1340.18 838.846 1340.18C890.783 1340.16 942.721 1340.19 994.658 1340.16C1007.33 1340.15 1005.62 1341.16 1005.63 1328.78C1005.66 1275.84 1005.6 1222.9 1005.48 1169.04C1006.38 1164.5 1008.98 1162.49 1012.48 1162.14C1030.5 1160.33 1048.57 1159.16 1066.65 1158.1C1068.33 1158 1069.85 1158.78 1072.1 1160.11C1076.45 1164.81 1076.42 1169.88 1076.43 1174.87C1076.55 1246.82 1076.61 1318.78 1076.39 1390.73C1076.34 1407.13 1072.98 1410.33 1056.08 1410.41C1008.11 1410.64 960.138 1410.47 912.17 1410.5C908.506 1410.51 904.833 1410.68 901.179 1410.53C893.13 1410.21 889.236 1413.81 887.805 1421.9C882.413 1452.38 877.825 1482.99 872.895 1513.54C864.413 1566.1 856.048 1618.68 847.564 1671.25C846.509 1677.79 846.456 1684.56 843.461 1691.52C843.29 1692.77 843.275 1693.25 843.351 1694.41C843.744 1695.95 844.242 1696.69 845.617 1697.54C853.669 1697.4 861.002 1697.48 868.333 1697.48C1143.59 1697.48 1418.86 1697.48 1694.12 1697.48C1716.78 1697.48 1717.02 1697.42 1713.44 1675.39C1700.31 1594.55 1687.84 1513.61 1674.31 1432.83C1673.26 1426.6 1673.18 1420.22 1670.59 1413.51C1665.47 1409.82 1660.35 1410.57 1655.43 1410.56C1606.57 1410.5 1557.71 1410.59 1508.85 1410.47C1502.61 1410.45 1496.17 1411.4 1489.46 1407.72C1485.19 1403.26 1485.61 1398.42 1485.59 1393.84C1485.37 1321.05 1485.34 1248.25 1485.6 1175.46C1485.65 1160.3 1489.97 1156.12 1505 1158.04C1518.2 1159.73 1531.6 1158.55 1544.67 1161.5C1548.24 1162.31 1552.02 1162.31 1554.37 1166.96Z" fill="#FCC72F"/>
<path d="M1799.06 2C1799.47 17.6427 1795.72 32.847 1793.44 48.2401C1788.89 79.0768 1783.35 109.768 1778.4 140.548C1772.65 176.237 1767.16 211.967 1761.45 247.662C1755.01 287.936 1748.44 328.19 1741.96 368.456C1739.21 385.482 1736.52 402.516 1733.81 419.549C1732.58 427.329 1732.6 427.442 1724.29 427.448C1671.64 427.484 1618.98 427.452 1566.33 427.476C1552.64 427.483 1554.38 426.483 1554.36 439.003C1554.3 473.329 1554.34 507.656 1554.33 542.909C1551.17 549.305 1545.62 548.836 1540.95 548.066C1528.09 545.944 1515.02 547.144 1502.16 544.861C1487.24 542.214 1485.68 541.124 1485.59 525.615C1485.35 484.62 1485.52 443.624 1485.51 402.628C1485.5 392.963 1485.3 383.293 1485.64 373.633C1486.09 360.91 1489.03 357.766 1501.98 357.663C1550.98 357.274 1599.97 357.609 1648.97 357.48C1671.98 357.42 1672.66 359.808 1676.64 334.599C1689.44 253.7 1702.55 172.847 1715.5 91.9714C1716.44 86.1311 1718.96 80.4508 1717.3 73.6007C1711.77 69.0139 1705.88 70.6039 1700.39 70.5996C1565.74 70.4938 1431.09 70.5192 1296.44 70.5189C1151.79 70.5185 1007.14 70.514 862.49 70.5234C841.612 70.5247 841.259 70.6008 844.31 90.8378C852.202 143.19 860.857 195.424 869.305 247.689C874.405 279.244 879.307 310.831 884.514 342.369C885.211 346.589 885.182 351.036 888.588 355.305C894.024 358.26 899.115 357.4 904.045 357.41C953.694 357.504 1003.34 357.4 1052.99 357.527C1059.25 357.543 1065.7 356.596 1072.46 360.211C1076.58 364.317 1076.35 368.8 1076.38 373.073C1076.67 424.661 1076.6 476.25 1076.43 527.839C1076.42 531.488 1076.39 535.187 1074.18 539.465C1071.55 543.263 1068.33 543.857 1065.03 544.421C1049.1 547.151 1032.96 547.249 1016.9 548.27C1013.34 548.496 1009.58 548.37 1006.15 544.713C1005.62 508.246 1005.65 472.606 1005.64 436.966C1005.64 427.522 1005.59 427.477 995.635 427.474C944.34 427.458 893.045 427.466 841.75 427.466C840.418 427.466 839.085 427.457 837.753 427.468C824.638 427.574 827.136 426.964 825.586 417.126C820.168 382.755 814.43 348.434 808.907 314.08C802.542 274.486 796.304 234.871 789.958 195.274C784.976 164.179 779.708 133.129 774.945 102.001C769.932 69.2372 763.698 36.6629 759.857 2.87035C1106.04 2 1452.08 2 1799.06 2Z" fill="#FCC72F"/>
<path d="M2 894.937C6.13666 894.03 5.42533 890.729 5.85828 888.294C12.3832 851.598 28.3621 819.466 53.0001 791.665C77.6709 763.828 108.545 745.872 143.469 733.476C233.574 701.493 324.489 672.195 416.924 647.688C430.113 644.191 443.276 640.588 456.522 637.321C463.335 635.641 463.894 635.956 463.644 642.299C462.925 660.563 461.767 678.809 460.823 697.064C460.479 703.709 460.285 710.361 459.969 717.008C458.563 746.571 457.507 776.158 455.555 805.685C454.654 819.307 454.038 832.909 453.645 846.544C453.336 857.235 452.535 858.164 442.377 860.893C403.147 871.433 363.95 882.092 325.064 893.852C314.631 897.007 304.299 900.474 293.648 902.833C291.357 898.156 291.791 893.65 292.529 889.569C295.209 874.736 292.692 859.615 295.433 844.806C296.082 841.303 293.974 839.879 290.558 840.94C284.835 842.716 279.133 844.562 273.436 846.42C241.781 856.741 209.931 866.485 178.747 878.203C168.432 882.079 168.3 882.315 168.276 893.42C168.234 912.085 168.185 930.751 168.303 949.416C168.36 958.356 168.92 958.933 177.417 956.381C199.73 949.678 221.865 942.375 244.208 935.777C277.726 925.881 311.275 916.063 344.98 906.832C365.797 901.13 386.941 899.889 408.031 906.243C441.688 916.382 462.937 938.928 473.488 971.971C476.944 982.794 478.433 993.941 478.359 1005.43C478.098 1046.09 478.649 1086.76 478.148 1127.42C477.613 1170.91 462.079 1208.34 431.658 1239.8C406.111 1266.22 375.001 1282.25 340.188 1292.43C283.93 1308.87 228.149 1326.81 172.887 1346.39C128.627 1362.07 84.6967 1378.6 41.0246 1395.83C29.9387 1400.2 18.9191 1404.74 6.34967 1409.82C6.34967 1402.14 5.52415 1395.86 6.54028 1389.9C8.12324 1380.6 7.70098 1371.29 8.12062 1362.01C9.51725 1331.11 11.2481 1300.23 12.5207 1269.32C13.5734 1243.76 15.6568 1218.22 16.1507 1192.62C16.2607 1186.92 18.7226 1184.41 23.6147 1182.45C67.5143 1164.86 111.649 1147.91 156.195 1132.03C159.646 1130.8 163.039 1129.4 166.521 1128.27C172.865 1126.22 173.768 1126.61 173.628 1133.06C173.406 1143.35 172.415 1153.62 172.075 1163.91C171.805 1172.12 172.021 1180.33 172.021 1189.32C180.188 1186.65 188.704 1184.1 197.046 1181.08C228.992 1169.5 261.451 1159.51 293.895 1149.46C294.531 1149.27 295.16 1149.04 295.796 1148.85C309.164 1144.67 309.726 1143.93 309.736 1129.97C309.75 1112.31 309.741 1094.64 309.737 1076.98C309.737 1074.98 309.83 1072.97 309.671 1070.98C309.159 1064.56 307.728 1063.35 301.523 1065C289.944 1068.09 278.367 1071.23 266.927 1074.8C229.098 1086.58 191.262 1098.35 153.578 1110.59C140.604 1114.8 127.904 1119.8 114.444 1122.4C58.0471 1133.29 14.46 1098.42 5.16567 1046.39C3.62115 1043.59 4.48042 1040.83 2.42917 1038.42C2 990.625 2 943.25 2 894.937Z" fill="#822533"/>
<path d="M2562 1409.06C2480.72 1376.45 2398.27 1346.09 2314.62 1319.03C2259.2 1301.1 2203.42 1284.39 2147.06 1269.66C2125.17 1263.93 2103.25 1258.32 2081.36 1252.58C2073.54 1250.53 2073.18 1250.06 2074.42 1242.47C2078.46 1217.86 2082.62 1193.26 2086.74 1168.66C2089.87 1149.96 2093.01 1131.27 2096.14 1112.57C2096.36 1111.26 2096.47 1109.92 2096.74 1108.62C2098.5 1100.18 2098.54 1100.08 2107.16 1102.17C2118.47 1104.92 2129.73 1107.91 2141.04 1110.66C2146.8 1112.06 2147.61 1111.6 2147.65 1105.73C2147.8 1084.41 2147.65 1063.08 2147.75 1041.76C2147.77 1037.3 2145.73 1035.12 2141.56 1034.14C2135.41 1032.69 2129.37 1030.73 2123.19 1029.46C2117.38 1028.26 2114.42 1025.7 2113.28 1019.27C2107.24 985.216 2100.59 951.275 2094.14 917.298C2091.16 901.612 2088.2 885.925 2085.15 870.252C2084.77 868.297 2084.03 866.422 2085.2 863.725C2088.13 862.901 2091.24 864.147 2094.34 864.923C2109.51 868.728 2124.65 872.644 2139.83 876.41C2147.17 878.231 2147.62 878.034 2147.67 871.142C2147.82 850.821 2147.65 830.497 2147.77 810.175C2147.8 805.44 2146.13 802.844 2141.32 801.758C2133.87 800.072 2126.56 797.718 2119.13 795.901C2114.75 794.83 2112.63 792.781 2111.91 787.906C2106.11 748.433 2099.96 709.011 2093.9 669.575C2092.34 659.39 2090.69 649.219 2089.13 639.032C2088.09 632.193 2088.92 631.273 2095.89 633.064C2121.68 639.684 2147.46 646.296 2173.14 653.297C2220.35 666.165 2267.15 680.366 2313.74 695.338C2393.32 720.911 2471.68 749.744 2549.08 781.245C2552.76 782.744 2556.43 784.424 2561.25 784.349C2562 826.042 2562 868.084 2562 911.063C2558.95 915.416 2560.09 919.602 2560.04 923.491C2559.73 947.105 2559.41 970.719 2557.96 994.296C2557.31 1004.96 2552.71 1008.21 2542.95 1004.21C2497.05 985.385 2450.43 968.456 2403.99 951.032C2393.68 947.162 2391.53 942.783 2392.86 931.779C2394.51 918.174 2393.08 904.477 2393.9 890.844C2394.12 887.001 2392.44 884.441 2388.95 883.056C2369.13 875.185 2348.8 868.763 2328.54 862.156C2322.69 860.246 2320.51 863.079 2320.46 868.563C2320.34 884.555 2320.38 900.548 2320.45 916.541C2320.48 922.922 2323.82 926.094 2329.55 927.961C2362.47 938.689 2395.07 950.381 2427.79 961.699C2434.1 963.88 2440.04 966.851 2446.35 969.034C2460.94 974.089 2462.86 977.634 2458.78 992.996C2453.24 1013.91 2447.86 1034.86 2442.75 1055.88C2438.19 1074.64 2432.94 1093.21 2428.14 1111.91C2425.08 1123.86 2421.1 1126.17 2409.32 1122.13C2383.81 1113.38 2358.36 1104.45 2332.71 1096.11C2321.66 1092.52 2320.51 1093.3 2320.42 1104.71C2320.3 1119.04 2320.57 1133.37 2320.32 1147.69C2320.19 1155.39 2322.78 1159.96 2330.58 1162.42C2348.68 1168.11 2366.68 1174.19 2384.61 1180.4C2391 1182.62 2394.09 1181.72 2393.73 1174.25C2393.15 1162.28 2394.32 1150.26 2392.92 1138.3C2391.46 1125.88 2395.8 1121.85 2407.58 1125.56C2427.26 1131.75 2446.41 1139.47 2465.72 1146.71C2491.59 1156.4 2517.3 1166.52 2543.12 1176.36C2553.28 1180.23 2558.1 1186.51 2558.28 1198.09C2558.67 1223.02 2559.96 1247.95 2560.04 1272.9C2560.05 1276.85 2559.26 1280.91 2561.51 1285.37C2562 1326.71 2562 1367.42 2562 1409.06Z" fill="#822533"/>
<path d="M2 1038.8C5.73716 1038.83 5.98647 1041.47 5.21107 1045.1C4.50115 1045.71 4.00063 1045.76 2.75006 1045.91C2 1043.87 2 1041.73 2 1038.8Z" fill="#481219"/>
<path d="M1722.48 68.2431C1722.88 83.0044 1719.42 97.2617 1717.16 111.669C1708.35 167.841 1699.15 223.952 1690.09 280.084C1686.17 304.376 1682.02 328.633 1678.41 352.97C1676.96 362.738 1676.59 362.436 1667.18 362.433C1612.58 362.42 1557.99 362.399 1503.4 362.445C1488.1 362.458 1489.69 360.967 1489.68 376.525C1489.63 426.457 1489.66 476.39 1489.66 526.322C1489.66 528.652 1489.78 530.989 1489.66 533.311C1489.41 537.661 1490.74 539.92 1495.72 540.199C1514.65 541.259 1533.56 542.736 1553.4 543.946C1611.59 549.141 1668.85 554.658 1725.86 562.298C1805.68 572.993 1885.04 586.464 1963.91 602.76C1996.49 609.491 2028.94 616.788 2061.33 624.35C2069.47 626.249 2070.25 627.34 2069.68 637.113C2068.5 657.351 2067.15 677.579 2066.08 697.822C2064.53 727.042 2063.81 756.323 2061.47 785.478C2060.09 802.716 2060.66 820.039 2058.39 837.224C2057.76 842.019 2056.64 843.635 2051.65 842.468C2035.13 838.6 2018.52 835.1 2001.96 831.389C1969.81 824.186 1937.56 817.47 1905.13 811.641C1895.85 809.974 1895.53 809.924 1895.82 799.913C1896.24 784.957 1897.2 770.017 1897.83 755.066C1898.16 747.128 1898.06 747.067 1890.24 745.52C1881.76 743.841 1873.25 742.306 1864.76 740.659C1860.69 739.871 1858.23 740.993 1858.31 745.593C1858.35 747.925 1858.26 750.258 1858.26 752.591C1858.26 847.25 1858.26 941.909 1858.26 1036.57C1858.26 1037.57 1858.25 1038.57 1858.26 1039.57C1858.37 1048.74 1858.37 1048.76 1867.08 1050.36C1877.88 1052.35 1888.74 1054.07 1899.47 1056.35C1910.69 1058.72 1909.2 1058.66 1910.52 1067.27C1916.92 1109.02 1923.55 1150.74 1930.13 1192.46C1931.17 1199.03 1932.42 1205.56 1933.43 1212.14C1934.48 1219.02 1933.78 1219.74 1926.91 1218.5C1905.95 1214.72 1885.02 1210.78 1864.05 1207.05C1828.02 1200.63 1791.86 1195.08 1755.65 1189.79C1721.1 1184.74 1686.4 1180.86 1651.78 1176.43C1642.87 1175.29 1633.9 1174.72 1624.97 1173.77C1618.11 1173.04 1617.53 1172.37 1618.63 1165.75C1623.39 1137.21 1628.26 1108.68 1633.04 1080.14C1636.01 1062.42 1638.92 1044.7 1641.77 1026.96C1643.01 1019.25 1642.93 1019.05 1651.1 1019.75C1660.71 1020.57 1670.33 1021.47 1679.86 1022.9C1684.29 1023.56 1686.2 1022.42 1686.22 1018.03C1686.23 1015.7 1686.26 1013.36 1686.26 1011.03C1686.26 916.371 1686.26 821.712 1686.26 727.053C1686.26 725.387 1686.31 723.718 1686.24 722.054C1685.95 714.763 1685.94 714.722 1678.34 713.618C1670.45 712.471 1662.56 711.296 1654.64 710.357C1648.43 709.621 1647.85 710.256 1647.72 716.44C1647.39 732.431 1649.26 748.331 1649.76 764.288C1649.79 765.287 1649.79 766.29 1649.9 767.282C1650.33 771.372 1649.45 773.326 1644.45 772.707C1632.9 771.279 1621.24 770.819 1609.68 769.487C1595.47 767.851 1581.27 766.281 1566.98 765.601C1563.34 765.428 1559.73 764.768 1555.3 764.248C1543.42 770.121 1531.63 766.661 1520.48 765.601C1494.74 763.153 1494.48 762.726 1494.48 788.096C1494.48 806.362 1494.45 824.627 1494.51 842.893C1494.52 847.205 1494.53 851.511 1495.41 855.783C1498.09 868.674 1500.88 871.407 1514.17 871.36C1524.52 871.323 1534.66 873.022 1544.91 873.69C1547.98 873.89 1550.82 874.507 1553.73 877.346C1558.3 878.69 1562.08 879.724 1566.15 879.784C1574.61 879.908 1574.81 880.143 1573.83 889.133C1572.56 900.673 1571 912.183 1569.42 923.685C1565.8 949.981 1562.05 976.259 1558.44 1002.56C1557.53 1009.11 1558.77 1010.78 1565.67 1011.48C1575.9 1012.52 1586.17 1013.19 1596.43 1013.94C1606.93 1014.7 1607.19 1014.7 1605.78 1025.58C1603.81 1040.72 1601.41 1055.8 1599.17 1070.9C1594.74 1100.78 1590.27 1130.65 1585.89 1160.54C1584.62 1169.2 1583.36 1170.52 1575.14 1169.08C1568.87 1167.98 1562.59 1168.04 1555.42 1167.93C1547.83 1164.12 1540.27 1165.77 1533.14 1164.9C1520.94 1163.41 1508.6 1163.13 1496.33 1162.16C1491.8 1161.8 1489.23 1163.09 1489.67 1168.1C1489.79 1169.42 1489.66 1170.76 1489.66 1172.09C1489.66 1247.29 1489.66 1322.49 1489.68 1397.69C1489.68 1399.68 1489.85 1401.67 1490.13 1404.55C1490.89 1412.16 1485.67 1415.49 1481.8 1419.38C1442.76 1458.57 1403.59 1497.62 1364.54 1536.79C1362.26 1539.08 1359.18 1540.82 1358.35 1544.43C1361.09 1546.51 1364.2 1545.65 1367.09 1545.65C1429.74 1545.7 1492.38 1545.5 1555.02 1545.88C1565.21 1545.94 1571.51 1542.37 1577.28 1534.14C1604.77 1494.91 1632.95 1456.15 1660.61 1417.02C1663.92 1412.35 1667.46 1407.91 1674.39 1407.61C1681.25 1446.12 1687.56 1484.2 1693.68 1522.3C1702.77 1578.81 1711.73 1635.33 1720.75 1691.85C1722.23 1701.1 1722.27 1701.1 1712.56 1701.26C1710.23 1701.3 1707.9 1701.27 1705.57 1701.27C1421.77 1701.27 1137.97 1701.27 854.17 1701.25C849.849 1701.25 845.529 1700.99 840.489 1700.43C839.598 1699.62 839.425 1699.22 839.399 1698.2C839.546 1697.57 839.56 1697.78 839.456 1697.77C848.022 1681.51 862.718 1670.93 875.678 1658.6C895.717 1639.55 915.138 1619.83 934.423 1600C950.464 1583.51 968.508 1569.15 984.26 1552.39C989.89 1546.4 996.821 1545.58 1004.33 1545.56C1041.99 1545.48 1079.65 1545.55 1117.31 1545.53C1164.3 1545.51 1211.29 1545.56 1258.28 1545.51C1274.57 1545.49 1275.5 1544.61 1275.51 1528.76C1275.54 1367.79 1275.54 1206.82 1275.51 1045.86C1275.51 1029.2 1274.77 1028.55 1257.93 1028.48C1248.6 1028.45 1239.26 1028.38 1229.93 1028.51C1217.62 1028.69 1216.31 1029.53 1213.59 1041.3C1206.31 1072.77 1198.93 1104.22 1192.27 1135.83C1186.8 1161.8 1186.22 1161.6 1159.64 1162.73C1138.4 1163.63 1117.1 1163.78 1095.88 1165.92C1088.17 1166.69 1079.89 1168.53 1071.82 1162.97C1049.59 1163.57 1028.24 1165.03 1006.16 1167.75C998.763 1168.64 992.126 1168.98 985.538 1169.75C980.559 1170.33 978.404 1168.63 977.691 1163.5C974.762 1142.43 971.407 1121.42 968.312 1100.37C964.637 1075.36 961.099 1050.34 957.437 1025.34C956.129 1016.41 956.955 1015.12 966.205 1014.32C978.794 1013.23 991.403 1012.37 1004.91 1011.38C1009.27 1007.31 1013.6 1005.82 1018.95 1005.61C1032.46 1005.07 1032.56 1004.88 1035.9 991.182C1046.3 948.686 1057.79 906.465 1067.94 863.036C1077.26 843.364 1078.14 822.377 1083.35 802.507C1105.45 718.097 1126.84 633.5 1148.44 548.958C1152.33 533.723 1154.86 532.652 1170.45 531.427C1200.39 529.076 1230.35 529.721 1260.31 529.53C1274.52 529.439 1275.52 528.478 1275.53 513.991C1275.58 422.002 1275.54 330.014 1275.56 238.025C1275.56 209.576 1275.58 209.562 1303.54 209.557C1386.87 209.545 1470.19 209.385 1553.51 209.742C1565.76 209.794 1575 206.344 1583.49 197.354C1613.47 165.626 1646.33 136.807 1677.16 105.907C1687.94 95.1023 1699.54 85.0152 1710.42 74.2362C1713.59 71.0981 1717.09 68.7397 1722.48 68.2431Z" fill="#822533"/>
<path d="M1004.85 544.174C1023.07 545 1040.28 541.475 1057.67 541.104C1061.6 541.02 1065.52 540.403 1070.26 539.906C1082.78 533.214 1089.53 536.696 1090.28 549.878C1091.4 569.523 1088.93 589.091 1087.77 608.617C1086.76 625.498 1086.11 642.459 1085.06 659.343C1083.21 688.834 1081.35 718.359 1080.37 747.913C1080.21 752.952 1080.04 757.995 1074.57 761.88C1053.97 766.338 1033.8 766.207 1013.84 768.141C1011.5 768.367 1009.27 767.575 1006.31 766.192C991.029 764.957 976.904 767.878 962.658 768.916C948.084 769.978 933.59 772.111 919.04 773.566C911.078 774.362 910.076 773.646 910.363 765.778C910.944 749.838 911.624 733.879 913.08 718.003C913.734 710.867 912.461 710.555 906.35 711.515C898.147 712.804 889.84 713.546 881.55 714.132C876.679 714.476 874.078 716.354 874.273 721.45C874.361 723.779 874.252 726.115 874.252 728.448C874.25 822.768 874.247 917.087 874.254 1011.41C874.255 1025.1 874.265 1025.02 887.467 1023C894.693 1021.9 901.954 1020.95 909.232 1020.29C916.787 1019.61 916.912 1019.78 918.192 1027.26C922.122 1050.22 926.017 1073.18 929.82 1096.15C933.513 1118.47 937.071 1140.81 940.705 1163.13C940.918 1164.44 941.328 1165.72 941.568 1167.03C942.341 1171.23 941.641 1173.93 936.369 1174.34C927.771 1175.02 919.233 1176.45 910.662 1177.5C881.288 1181.09 851.854 1184.24 822.548 1188.32C779.395 1194.31 736.356 1201.11 693.493 1208.96C673.203 1212.68 652.932 1216.5 632.641 1220.21C631.079 1220.49 629.435 1221.23 626.932 1219.76C628.791 1207.15 630.625 1194.11 632.646 1181.1C638.414 1143.97 644.289 1106.85 650.053 1069.71C651.528 1060.21 651.894 1059.62 661.648 1057.78C672.434 1055.74 683.259 1053.9 694.038 1051.83C701.034 1050.48 701.453 1049.85 701.731 1042.6C701.795 1040.93 701.75 1039.26 701.75 1037.6C701.75 943.278 701.734 848.959 701.767 754.639C701.773 740.064 701.572 741.034 688.72 743.633C681.88 745.015 675.002 746.226 668.11 747.323C663.541 748.05 662.248 750.178 662.877 754.897C664.9 770.062 663.849 785.423 665.547 800.666C666.688 810.905 665.974 811.237 656.009 813.061C616.388 820.31 577.052 828.91 537.759 837.727C528.343 839.84 518.98 842.209 509.523 844.117C502.8 845.473 502.665 845.222 502.293 838.793C501.431 823.855 500.64 808.912 499.851 793.97C498.571 769.735 497.326 745.499 496.047 721.264C494.662 695.035 493.251 668.808 491.868 642.579C491.763 640.584 491.737 638.581 491.765 636.583C491.882 628.052 491.928 628.139 500.341 626.117C547.593 614.758 595.076 604.481 642.769 595.129C686.522 586.549 730.455 579.052 774.489 572.105C817.853 565.263 861.376 559.512 904.982 554.568C936.022 551.05 967.086 547.468 998.303 545.635C1000.25 545.52 1002.17 544.865 1004.85 544.174Z" fill="#822533"/>
<path d="M1005.51 766.876C1010.06 762.393 1015.67 763.695 1020.8 763.231C1037.03 761.766 1053.25 759.841 1070.46 760.172C1077.03 763.578 1076.36 769.237 1076.42 774.428C1076.78 803.844 1077.35 833.275 1072.31 863.33C1068.7 884.622 1062.34 904.306 1057.48 924.339C1051.29 949.881 1044.59 975.3 1038.05 1000.76C1035.95 1008.95 1035.87 1008.96 1027.4 1009.67C1020.76 1010.22 1014.13 1010.71 1006.66 1011.29C1005.76 950.47 1005.71 889.588 1005.65 828.706C1005.63 808.412 1005.63 788.117 1005.51 766.876Z" fill="#FCC62F"/>
<path d="M1554.38 876.962C1536.42 878.382 1518.62 875.644 1500.71 874.769C1496.9 874.583 1494.79 872.981 1493.83 869.038C1491.7 860.325 1489.4 851.797 1489.54 842.605C1489.91 817.998 1489.62 793.38 1489.69 768.767C1489.71 759.388 1489.83 759.15 1499.08 759.751C1517 760.913 1534.89 762.373 1553.64 763.936C1554.44 801.454 1554.39 838.745 1554.38 876.962Z" fill="#FCC72F"/>
<path d="M1071.02 1163.51C1088.28 1162.49 1105.41 1159.78 1122.75 1159.86C1140.35 1159.94 1157.89 1157.04 1175.55 1157.92C1180.72 1158.18 1183.04 1155.65 1184.18 1150.44C1192.67 1111.44 1201.49 1072.51 1210.18 1033.55C1212.05 1025.18 1213.03 1024.15 1221.36 1024.08C1237.68 1023.96 1254.01 1023.94 1270.33 1024.04C1279.24 1024.1 1279.78 1024.8 1280 1033.82C1280.05 1035.81 1280.01 1037.81 1280.01 1039.81C1280.01 1204.71 1280.01 1369.6 1280.02 1534.5C1280.02 1551.22 1280.7 1550.02 1264.05 1550.02C1177.77 1550.03 1091.49 1550.13 1005.21 1549.86C996.532 1549.83 990.445 1552.52 984.148 1558.49C948.122 1592.61 913.674 1628.34 877.814 1662.6C865.587 1674.28 853.945 1686.7 840.028 1697.56C840.452 1680.12 844.275 1662.87 847.013 1645.47C856.582 1584.65 866.406 1523.87 876.148 1463.08C878.728 1446.98 881.389 1430.89 883.955 1414.79C885.448 1405.41 885.396 1405.31 895.37 1405.31C948.327 1405.27 1001.28 1405.36 1054.24 1405.25C1073.48 1405.22 1071.17 1407.69 1071.18 1388.21C1071.21 1313.6 1071.12 1239 1071.02 1163.51Z" fill="#A71930"/>
<path d="M1674.67 1407.31C1669.9 1409.41 1668.22 1414.32 1665.62 1417.92C1640.55 1452.71 1615.76 1487.7 1590.87 1522.62C1585.46 1530.19 1579.83 1537.61 1574.55 1545.27C1572.21 1548.67 1569.3 1550.17 1565.32 1550C1563.99 1549.95 1562.66 1550.02 1561.33 1550.02C1492.77 1550.02 1424.2 1550.03 1355.64 1550.01C1353.34 1550.01 1351.04 1549.81 1349 1549.72C1347.47 1547.5 1348.72 1546.26 1349.86 1545.12C1396.29 1498.83 1442.74 1452.55 1489.75 1405.86C1549.42 1405.39 1608.53 1405.33 1667.64 1405.31C1669.92 1405.31 1672.32 1404.92 1674.67 1407.31Z" fill="#A71A30"/>
<path d="M839.175 1697.81C839.614 1697.98 839.682 1698.38 839.76 1699.4C838.613 1699.77 838.465 1699.03 839.175 1697.81Z" fill="#A71930"/>
<path d="M1072.24 863.581C1070.55 848.997 1071.39 833.808 1071.26 818.631C1071.1 799.809 1071.22 780.985 1071.28 761.249C1075.14 758.411 1076.14 755.021 1075.93 751.135C1074.96 732.828 1077.41 714.617 1078.52 696.441C1079.52 679.928 1078.37 663.207 1081.63 646.828C1081.83 645.856 1081.93 644.836 1081.88 643.85C1080.82 624.212 1084.55 604.766 1084.12 585.132C1083.9 574.536 1086.51 564.072 1086.12 553.361C1085.64 540.309 1086 540.296 1072.02 539.823C1071.13 481.502 1071.19 423.225 1071.35 364.093C1069.67 358.935 1072.47 356.378 1075.07 353.74C1103.33 325.068 1132.61 297.463 1162.23 270.195C1173.99 259.367 1184.98 247.742 1196.28 236.45C1201.65 231.089 1208.83 227.626 1212.95 220.909C1211.02 217.077 1207.64 218.385 1204.97 218.382C1138.71 218.301 1072.45 218.397 1006.19 218.19C997.826 218.163 992.685 221.683 987.99 228.02C957.708 268.891 927.693 309.96 897.164 350.649C893.863 355.048 890.223 358.644 884.624 361.317C879.89 353.04 879.845 343.61 878.373 334.549C864.387 248.479 850.658 162.368 836.859 76.2679C836.596 74.6252 836.352 72.9784 836.148 71.3275C835.791 68.4558 837.08 66.8918 839.973 66.769C842.301 66.6701 844.633 66.6377 846.964 66.6377C1135.75 66.6322 1424.53 66.6307 1713.32 66.6566C1716.3 66.6569 1719.27 67.022 1722.8 67.7759C1722.31 69.1643 1721.17 69.893 1720.25 70.8376C1695.12 96.5763 1668.41 120.698 1642.69 145.833C1621.74 166.303 1600.48 186.48 1579.8 207.229C1574.69 212.354 1568.94 214.174 1561.84 214.144C1520.86 213.97 1479.87 214.06 1438.88 214.06C1390.89 214.06 1342.91 214.059 1294.92 214.063C1292.25 214.063 1289.59 214.144 1286.92 214.108C1282.47 214.047 1280.04 216.016 1280.07 220.651C1280.09 223.65 1280.01 226.649 1280.01 229.648C1280.01 326.287 1280.01 422.927 1280.01 519.567C1280.01 533.951 1279.99 533.956 1265.93 533.982C1257.93 533.997 1249.92 534.208 1241.93 533.957C1215.95 533.139 1190.05 535.12 1164.12 536.025C1157.06 536.271 1156.32 536.899 1154.29 544.741C1147.53 570.848 1140.88 596.983 1134.18 623.105C1122.43 668.9 1110.61 714.678 1098.94 760.492C1091.22 790.813 1083.71 821.189 1076.07 851.53C1075.09 855.388 1073.85 859.178 1072.24 863.581Z" fill="#A71A30"/>
<path d="M884.824 361.9C895.122 346.319 906.284 330.998 917.547 315.753C939.686 285.785 962.209 256.092 983.851 225.771C990.154 216.941 996.867 213.711 1007.74 213.794C1075.7 214.317 1143.66 214.036 1211.62 214.122C1215.14 214.126 1220.23 212.302 1221.85 215.684C1223.93 220.005 1218.62 222.331 1215.97 224.816C1185.11 253.692 1155.04 283.403 1124.16 312.225C1106.63 328.581 1090.31 346.153 1071.87 362.608C1067.21 361.953 1062.85 362.445 1058.54 362.443C1004.93 362.411 951.322 362.427 897.713 362.412C893.72 362.411 889.727 362.27 884.824 361.9Z" fill="#822433"/>
<path d="M143.724 987.47C155.143 994.757 166.336 993.323 177.825 989.51C231.413 971.722 285.592 955.9 340.011 940.871C355.9 936.483 371.793 934.001 388.194 937.739C396.376 939.604 404.071 942.513 411.591 947.57C413.181 950.84 412.703 953.639 410.764 955.478C398.404 967.197 389.349 982.13 374.433 992.315C372.678 992.782 371.643 992.87 369.812 992.787C343.603 980.161 319.572 990.728 295.474 997.489C251.606 1009.8 208.189 1023.62 164.844 1037.64C148.937 1042.79 132.95 1043.81 116.657 1040.71C110.867 1039.6 106.702 1040.69 102.79 1045.69C95.2179 1055.37 87.4727 1064.92 79.822 1074.55C77.054 1078.03 74.1802 1081.11 68.746 1081.91C48.9772 1072.63 40.1608 1056.07 36.1905 1036.32C34.8166 1029.48 34.3692 1022.48 34.3881 1015.45C34.4806 981.143 34.3373 946.836 34.4489 912.53C34.6496 850.871 77.1052 790.648 135.188 769.401C229.306 734.971 324.783 704.85 421.622 679.047C423.866 678.448 426.173 678.087 429.267 677.756C430.854 681.842 429.084 685.168 426.757 687.863C412.481 704.393 398.81 721.458 382.931 737.542C381.884 738.195 381.436 738.412 380.299 738.924C379.163 739.455 378.717 739.69 377.59 740.267C376.409 740.71 375.91 740.811 374.652 740.997C305.964 761.294 238.133 781.935 171.59 806.297C125.266 823.257 97.6031 857.045 92.1228 907.047C88.9251 936.223 89.309 965.469 92.1413 994.694C92.9006 1002.53 95.5167 1009.62 99.4101 1016.28C104.264 1024.59 108.692 1025.05 114.646 1017.6C120.877 1009.8 127.147 1002.04 133.545 994.385C136.166 991.248 138.582 988.153 143.724 987.47Z" fill="#F9D962"/>
<path d="M373.222 990.684C386.179 976.395 398.725 962.791 411.651 948.649C430.013 958.454 439.011 975.011 443.83 994.366C445.769 1002.15 446.093 1010.14 446.08 1018.16C446.026 1052.45 445.677 1086.74 446.157 1121.03C446.829 1169.13 425.6 1206.04 389.01 1235.3C376.415 1245.37 362.215 1252.72 346.728 1257.26C245.796 1286.86 146.429 1321 48.6591 1359.79C48.3529 1359.91 48.0139 1359.95 46.9527 1360.07C45.7861 1360.38 45.3572 1360.64 44.2291 1360.61C39.4167 1355.27 42.2457 1350.65 45.2122 1346.85C58.8057 1329.43 71.7667 1311.51 86.8151 1294.3C88.4525 1293.48 89.4661 1293.23 91.3036 1293.03C108.834 1286.51 125.39 1279.55 142.389 1273.8C176.429 1262.29 210.241 1250.13 244.427 1239.02C268.471 1231.21 293.241 1225.3 316.408 1215.1C351.826 1199.52 376.254 1173.67 386.294 1135.47C387.24 1131.87 387.606 1128.27 387.614 1124.6C387.682 1094.27 387.644 1063.93 387.637 1033.6C387.634 1022.17 383.927 1012.07 377.158 1002.96C374.616 999.541 371.27 996.352 373.222 990.684Z" fill="#FCC72F"/>
<path d="M373.081 989.995C374.309 993.08 376.452 995.18 378.436 997.442C387.827 1008.15 392.318 1020.54 392.181 1034.9C391.921 1062.19 391.519 1089.5 392.317 1116.77C392.889 1136.32 386.85 1153.54 376.821 1169.54C361.304 1194.3 339.692 1212.1 311.982 1221.63C283.38 1231.47 254.356 1240.07 225.738 1249.86C186.429 1263.31 146.941 1276.26 108.252 1291.48C103.331 1293.41 98.3695 1295.49 92.1794 1296.06C88.4698 1290.87 91.9688 1286.95 94.6429 1283.51C106.203 1268.6 117.493 1253.47 129.783 1239.14C132.145 1236.39 134.409 1233.39 139.26 1233.49C193.833 1214.5 247.926 1195.93 302.702 1179.42C327.203 1172.04 343.057 1148.05 342.138 1125.42C341.247 1103.49 341.885 1081.49 341.96 1059.52C341.989 1051.22 339.965 1043.73 334.105 1036.75C332.698 1033.11 332.83 1029.94 334.895 1027.64C346.103 1015.17 355.567 1001.08 369.711 990.372C371.047 989.97 371.788 989.98 373.081 989.995Z" fill="#F9D962"/>
<path d="M144.156 986.679C134.688 999.483 125.149 1011.88 115.037 1023.79C108.262 1031.78 105.226 1031.48 98.5557 1023.29C93.4243 1016.98 89.8171 1009.63 88.6331 1001.7C87.4109 993.52 85.8881 985.327 86.019 976.914C86.3042 958.585 85.9248 940.247 86.1436 921.916C86.6782 877.13 105.309 841.608 141.78 815.736C150.724 809.392 160.888 804.873 171.337 801.281C217.336 785.47 263.465 770.053 309.961 755.761C327.788 750.282 345.697 745.07 363.571 739.748C367.09 738.7 370.636 737.766 375.2 737.956C378.669 741.929 376.163 745.347 374.055 747.92C360.648 764.28 347.266 780.675 332.689 796.033C331.76 797.011 330.479 797.46 328.463 797.889C323.929 797.234 320.548 798.883 317.07 799.922C269.614 814.104 222.728 830.021 175.79 845.806C151.967 853.817 134.983 878.977 136.034 902.151C136.952 922.403 136.366 942.73 136.166 963.021C136.08 971.7 138.004 979.475 144.156 986.679Z" fill="#FDC730"/>
<path d="M369.653 989.625C369.332 995.453 365.417 999.007 362.036 1003.03C352.989 1013.8 342.595 1023.4 334.11 1035.54C323.084 1028.51 311.731 1028.6 299.536 1032.16C244.923 1048.09 190.561 1064.8 136.753 1083.28C124.42 1087.52 111.936 1090.62 98.6884 1090.26C88.173 1089.98 78.2334 1088.02 68.4426 1082.56C79.1453 1067.99 90.3656 1053.99 101.471 1039.9C104.872 1035.59 108.317 1033.74 114.288 1035.46C130.737 1040.18 147.047 1038.59 163.318 1033.36C213.654 1017.16 264.06 1001.16 315.102 987.29C320.867 985.723 326.796 984.767 332.609 983.366C345.589 980.237 357.665 982.423 369.653 989.625Z" fill="#FCC72F"/>
<path d="M379.329 736.627C396.301 717.005 412.823 698.015 429.714 678.46C432.907 679.773 431.522 682.608 431.408 684.929C429.548 722.77 427.569 760.604 425.583 798.439C425.148 806.734 424.547 815.021 424.084 823.315C423.551 832.864 423.582 832.868 414.54 835.419C387.039 843.175 359.534 850.919 332.04 858.703C329.817 859.333 327.698 860.487 325.016 858.829C332.531 839.698 347.577 826.538 359.809 811.372C366.95 802.517 371.475 794.061 372.269 782.13C373.266 767.155 370.853 751.308 379.329 736.627Z" fill="#FCC630"/>
<path d="M88.7505 1295.37C82.9854 1307.91 73.1209 1316.54 65.9213 1327.09C58.725 1337.63 48.7516 1346.19 43.5935 1358.97C43.1624 1361.18 41.6312 1360.94 40.3934 1362.11C35.3849 1361.44 37.8589 1357.69 37.9344 1355.38C38.598 1335.12 39.5733 1314.87 40.5438 1294.62C41.7688 1269.06 43.348 1243.52 44.186 1217.95C44.4461 1210.01 46.7289 1205.59 54.6944 1202.65C83.3507 1192.08 111.68 1180.63 141.231 1170.63C139.874 1182.13 131.734 1189.79 124.814 1198.07C116.948 1207.49 109.277 1217.06 101.185 1226.29C95.3225 1232.97 94.2938 1241.1 94.2998 1249.58C94.3106 1264.81 95.1522 1280.16 88.7505 1295.37Z" fill="#F8D862"/>
<path d="M88.8281 1296.02C87.9549 1277.12 90.7951 1258.35 90.4776 1239.44C90.3952 1234.53 92.4025 1229.64 95.7104 1225.69C110.814 1207.67 125.971 1189.69 141.528 1171.22C143.259 1181.89 141.823 1192.99 141.048 1204.06C140.397 1213.35 139.725 1222.62 139.841 1232.84C123.181 1253.46 107.063 1273.71 91.6627 1295.42C90.6884 1296.06 90.0137 1296.04 88.8281 1296.02Z" fill="#FCC731"/>
<path d="M379.321 736.003C378.485 755.456 377.139 774.912 375.946 794.377C375.728 797.932 374.193 800.623 372.018 803.242C359.753 818.005 347.696 832.945 335.219 847.526C332.257 850.988 330.274 855.471 325.321 857.942C325.699 838.709 326.675 819.222 327.694 798.851C330.842 790.49 337.051 785.324 342.003 779.282C351.588 767.591 361.826 756.438 371.71 744.99C373.199 743.265 374.241 741.155 375.763 738.6C376.037 737.977 375.996 738.01 375.976 738.026C376.424 737.619 376.882 737.185 377.638 736.383C377.946 736.023 378.863 736.009 379.321 736.003Z" fill="#F9D861"/>
<path d="M40.7407 1362.54C40.8444 1361.78 41.626 1360.94 42.9499 1359.89C43.9451 1359.76 44.398 1359.84 45.533 1360.02C44.9566 1361.59 43.1653 1361.98 40.7407 1362.54Z" fill="#FCC731"/>
<path d="M2523.78 1207.81C2527.76 1215.24 2527.06 1223.31 2527.46 1231.1C2529.34 1268.35 2530.78 1305.61 2532.36 1342.87C2532.65 1349.7 2534.62 1356.53 2533.03 1363.32C2528.8 1364.28 2525.97 1362.12 2522.99 1360.93C2391.65 1308.82 2257.67 1264.78 2120.8 1229.61C2118.23 1228.95 2115.74 1227.98 2112.93 1226.51C2123.67 1209.52 2140.99 1201.27 2157.09 1191.51C2160.64 1189.36 2164.91 1190.69 2168.84 1191.55C2183.49 1194.72 2197.87 1198.9 2212.17 1203.39C2225.51 1207.57 2227.47 1206.22 2227.49 1192.34C2227.57 1130.04 2227.5 1067.75 2227.53 1005.46C2227.56 926.227 2227.47 846.997 2227.54 767.766C2227.56 743.769 2229.54 742.503 2252.11 749.315C2265.18 753.257 2278.11 757.643 2292.1 761.485C2300.93 766.614 2309.96 768.96 2318.74 771.899C2358.57 785.235 2398.51 798.263 2438.69 812.93C2441.53 813.126 2443.55 813.457 2446.08 814.737C2454.07 820.105 2462.88 821.44 2471.6 824.955C2474.41 825.181 2476.31 825.809 2478.66 827.451C2483.62 831.18 2484.51 835.625 2479.94 838.477C2465.24 847.646 2450.59 857.171 2432.34 860.414C2402.46 848.791 2372.72 839.026 2343.06 829.033C2326.97 823.611 2310.77 818.514 2294.6 813.317C2291.49 812.314 2288.46 810.693 2284.2 811.497C2284.2 857.365 2284.2 903.313 2284.21 950.137C2290.48 958.493 2288.08 967.465 2288.24 975.885C2288.56 993.362 2288.31 993.549 2305.21 998.44C2323.09 1003.62 2340.71 1009.6 2358.24 1015.81C2365.93 1018.53 2372.38 1017.72 2378.92 1013.34C2385.26 1009.08 2392.11 1005.61 2398.49 1001.44C2403.39 998.236 2408.47 996.301 2414.95 996.027C2416.99 998.845 2416.01 1001.44 2415.37 1003.97C2409.63 1026.53 2403.87 1049.09 2398.01 1071.62C2396.06 1079.11 2395.85 1079.2 2388.51 1076.77C2357.25 1066.45 2326.01 1056.04 2294.75 1045.7C2291.65 1044.68 2288.63 1042.99 2284.11 1044.08C2284.11 1090.05 2284.11 1136.23 2284.08 1183.37C2288.58 1190.77 2285.22 1194.85 2279.76 1198.12C2272.88 1202.23 2265.08 1204.36 2258.02 1208.09C2254.9 1209.73 2251.17 1210.38 2248.32 1213.76C2255.12 1217.19 2262.16 1219.04 2269.03 1221.18C2335.03 1241.7 2400.73 1263.1 2465.45 1287.43C2477.24 1291.86 2477.35 1291.44 2477.75 1278.95C2478.11 1267.6 2475.22 1256.55 2475.57 1245.17C2475.85 1236.22 2479.18 1229.94 2486.86 1225.61C2494.96 1221.03 2502.83 1216.05 2510.83 1211.3C2514.72 1208.99 2518.58 1207.65 2523.78 1207.81Z" fill="#FCC72F"/>
<path d="M2446.55 818.155C2444.23 817.79 2442.58 817.38 2440.44 816.559C2433.44 809.693 2424.32 808.992 2416.36 806.138C2378.22 792.471 2340.05 778.86 2301.27 767.076C2299.33 766.486 2297.46 766.009 2294.68 766.109C2278.08 763.423 2263.33 756.918 2247.86 752.914C2244.64 752.081 2241.5 750.947 2238.35 749.866C2234.02 748.383 2232.02 749.927 2232.07 754.435C2232.11 757.434 2232.05 760.434 2232.04 763.434C2232.04 909.094 2232.02 1054.75 2232.06 1200.41C2232.07 1215.88 2231.46 1213.95 2219.27 1210.34C2203.62 1205.71 2187.79 1201.73 2172.2 1196.91C2163.96 1194.37 2157.25 1195 2150.06 1200.45C2138.4 1209.29 2125.89 1217.01 2113.19 1225.53C2112.87 1215.2 2115.62 1204.9 2117.24 1194.43C2119.46 1179.99 2121.86 1165.58 2124.28 1151.17C2124.87 1147.62 2125.05 1143.91 2127.54 1140.01C2144.6 1144.5 2161.83 1149.04 2180.3 1153.9C2180.3 1106.62 2180.3 1060.19 2180.28 1012.81C2179.94 1005.79 2184.69 1003.37 2188.65 1000.54C2197.46 994.227 2206.86 988.715 2215.77 980.913C2207.27 977.196 2199.06 975.29 2190.81 973.482C2187.49 972.754 2185.15 974.435 2182.62 976.076C2173.74 981.833 2165.15 988.013 2156.56 994.181C2152.53 997.069 2148.5 1000.06 2142.48 1000.07C2138.21 993.508 2138.44 986.074 2137.29 978.96C2133.66 956.276 2130.2 933.563 2126.7 910.858C2126.5 909.581 2126.14 908.207 2128.12 906.263C2144.73 910.621 2161.95 915.138 2179.43 919.725C2179.79 917.807 2180.24 916.52 2180.24 915.234C2180.19 870.253 2180.09 825.272 2179.8 779.405C2180.15 773.193 2184.36 770.817 2188.1 768.158C2197.27 761.659 2206.85 755.763 2216.96 748.675C2208.45 745.278 2200.41 743.733 2192.61 741.412C2187.35 739.847 2183.62 742.874 2179.92 745.529C2171.86 751.328 2163.78 757.112 2155.63 762.79C2151.68 765.547 2147.63 769.046 2141.47 766.636C2136.19 736.057 2131.48 705.87 2126.69 675.151C2132.27 673.826 2136.21 675.986 2140.16 677.028C2244.84 704.641 2347.95 737.264 2449.38 775.141C2476.82 785.389 2504.02 796.278 2531.81 807.413C2531.16 817.532 2522.45 817.775 2515.52 821.295C2513.56 822.016 2512.23 822.371 2510.34 823.214C2508.45 824.057 2507.11 824.412 2505.07 824.817C2495.15 822.535 2488.11 830.78 2478.55 830.17C2476.22 829.807 2474.58 829.387 2472.45 828.554C2464.32 823.295 2456.09 819.917 2446.55 818.155Z" fill="#F9D962"/>
<path d="M2524 1207.22C2513.19 1214.73 2502.16 1222.27 2490.44 1228.51C2482.23 1232.87 2479.26 1238.4 2479.81 1247.59C2480.57 1260.19 2483.04 1272.71 2482.07 1285.42C2481.89 1287.73 2482.21 1290.1 2481.96 1292.41C2481.44 1297.29 2479.99 1298.36 2475.39 1296.44C2451.39 1286.46 2426.72 1278.32 2402.26 1269.58C2370.89 1258.36 2339.17 1248.21 2307.43 1238.13C2285.85 1231.27 2264.24 1224.51 2242.64 1217.72C2240.72 1217.12 2238.81 1216.55 2237.23 1214.44C2238.44 1210.53 2242.4 1209.98 2245.51 1208.58C2256.13 1203.79 2266.76 1198.99 2277.55 1194.6C2281.81 1192.87 2284.25 1190.5 2284.04 1185.07C2313.38 1194.13 2342.74 1203.85 2372.03 1213.78C2388.41 1219.34 2404.67 1225.26 2421 1230.96C2424.06 1232.03 2427.01 1233.69 2431.15 1233.51C2430.51 1217.22 2429.89 1201.32 2429.26 1185.42C2429.22 1184.42 2429.09 1183.43 2429.02 1182.43C2428.08 1170.18 2428.14 1170.04 2439.65 1174.43C2467.62 1185.11 2495.54 1195.94 2524 1207.22Z" fill="#F9D962"/>
<path d="M2503.32 822.18C2505.15 821.759 2506.2 821.361 2507.65 820.561C2508.78 819.185 2509.68 818.463 2511.47 818.129C2518.99 816.136 2525.08 812.435 2531.77 808.412C2535.71 813.557 2533.56 819.603 2533.33 825.361C2532.34 849.636 2530.97 873.896 2529.62 898.155C2528.6 916.431 2527.42 934.697 2526.3 952.968C2526.2 954.599 2526.33 956.294 2525.03 957.611C2522.56 958.447 2520.52 957.02 2518.39 956.207C2490.4 945.541 2462.41 934.863 2434.45 924.141C2432.61 923.438 2430.92 922.352 2428.98 920.806C2434.08 910.395 2444.29 906.87 2452.97 901.633C2476.68 887.334 2476.73 887.536 2477.68 859.486C2477.9 852.906 2477.01 846.306 2479.25 839.753C2483.11 828.455 2492.53 825.063 2503.32 822.18Z" fill="#FCC630"/>
<path d="M2415.26 995.635C2402.04 1004.41 2388.3 1012.5 2374.77 1020.92C2371.03 1023.25 2367.76 1023.67 2363.58 1022.28C2339.93 1014.43 2316.18 1006.9 2292.51 999.113C2284.2 996.38 2284.07 996.068 2284.01 986.93C2283.94 975.631 2284.06 964.331 2284.16 952.022C2328.06 964.768 2371.71 979.126 2415.26 995.635Z" fill="#F8D962"/>
<path d="M2503.57 821.761C2500.07 825.766 2495 827.543 2490.27 829.878C2486.4 831.791 2483.8 834.309 2483.33 838.752C2482.98 842.031 2481.95 845.328 2482.15 848.559C2482.92 860.877 2479.73 872.924 2479.97 885.184C2480.04 888.349 2479.2 891.034 2476.24 892.754C2460.81 901.717 2446.07 911.84 2429.47 920.054C2429.68 900.776 2430.57 881.383 2431.52 861.149C2443.18 852.157 2456.53 847.279 2468.89 840.549C2472.06 838.825 2475.36 837.353 2478.51 835.595C2480.93 834.244 2480.52 832.59 2478.22 830.63C2485.82 826.046 2493.4 820.791 2503.57 821.761Z" fill="#FAD962"/>
<path d="M2142.32 1000.64C2154.71 989.168 2169.24 980.426 2182.81 970.359C2184.75 968.917 2186.87 967.77 2189.25 968.388C2201.01 971.452 2212.86 974.25 2225.51 979.102C2211.08 991.738 2195.2 1000.09 2180.81 1011.51C2167.79 1008.3 2155.32 1004.73 2142.32 1000.64Z" fill="#FCC730"/>
<path d="M2141.07 766.88C2148.89 764.189 2154.33 758 2160.95 753.744C2167.91 749.268 2174.45 744.138 2181.16 739.282C2183.9 737.3 2186.83 735.328 2190.31 736.274C2201.72 739.367 2213.06 742.711 2225.53 746.275C2218.73 754.46 2210.36 758.001 2203.25 763.126C2196 768.351 2188.41 773.097 2180.28 778.286C2166.63 775.47 2153.49 773.056 2141.07 766.88Z" fill="#FCC730"/>
<path d="M1469.61 905.253C1490.31 906.791 1510.29 908.095 1530.26 909.456C1531.87 909.566 1533.46 910.078 1535.39 911.118C1525.3 929.997 1507.47 940.543 1492.25 953.721C1487.51 957.823 1480.62 956.956 1474.82 955.949C1458.35 953.083 1441.63 953.66 1425.12 952.971C1371.96 950.753 1318.73 949.578 1265.49 950.325C1257.13 950.443 1251.59 953.426 1247.88 960.726C1244.1 968.145 1238.83 974.671 1234.83 981.982C1232.57 986.102 1229.55 989.71 1223.72 990.449C1215.96 976.004 1209 961.887 1201.84 947.092C1200.65 945.54 1199.58 944.651 1199.12 943.418C1194.87 932.199 1205.28 903.012 1216.41 896.718C1249.46 894.609 1281.72 896.017 1313.96 895.582C1320.94 895.488 1327.93 895.733 1334.91 895.502C1344.66 895.179 1345.97 893.638 1343.6 883.876C1336.77 855.783 1329.43 827.813 1322.67 799.704C1312.25 756.409 1301.52 713.194 1290.73 669.993C1289.92 666.752 1289.38 663.491 1289.18 659.342C1289.53 652.606 1293.74 649.087 1297.44 645.294C1304.64 637.904 1312.08 630.736 1319.24 623.307C1320.58 621.922 1322.63 620.534 1321.95 618.342C1321.2 615.948 1318.69 616.434 1316.82 616.43C1292.84 616.375 1268.86 616.337 1244.89 616.419C1237.81 616.443 1235.18 620.333 1233.6 626.589C1227.15 652.059 1220.98 677.6 1214.4 703.037C1182.98 824.425 1153.55 946.31 1122.66 1067.83C1118.53 1084.07 1117.01 1085.27 1100.52 1086.45C1094.23 1086.9 1088.01 1089.28 1081.71 1088.23C1061.75 1084.92 1049.27 1095.64 1038.05 1110.02C1030.73 1119.4 1023.21 1128.99 1010.49 1133.47C1006.7 1132.46 1007.15 1129.34 1006.78 1126.93C1002.99 1101.91 999.321 1076.87 995.776 1051.81C994.754 1044.58 994.984 1044.5 1001.75 1043.96C1018.69 1042.62 1035.62 1041.27 1052.57 1040.03C1061.36 1039.38 1061.43 1039.49 1063.69 1030.66C1076.48 980.657 1089.19 930.636 1102.02 880.643C1128 779.365 1154.03 678.101 1180.05 576.834C1182.41 567.644 1182.44 567.498 1191.8 567.086C1227.44 565.517 1263.11 565.822 1298.77 565.928C1324.75 566.004 1350.75 565.56 1377.45 567.602C1379.06 573.18 1376.35 576.757 1372.96 580.222C1364.83 588.555 1356.63 596.836 1348.25 604.917C1343.12 609.87 1341.82 614.833 1343.62 621.876C1360.53 687.829 1377.94 753.65 1394.92 819.583C1404.03 854.963 1413.31 890.299 1422.47 925.664C1425.38 936.876 1426.55 936.902 1435.71 929.307C1443.89 922.521 1451.19 914.731 1459.92 908.581C1462.65 906.653 1465.17 904.408 1469.61 905.253Z" fill="#F9D962"/>
<path d="M1929.54 781.853C1927.41 776.839 1928.33 771.861 1928.58 766.925C1929.35 752.011 1930.3 737.106 1931.3 721.42C1930.25 714.816 1934.51 712.358 1938.31 709.678C1948.05 702.79 1958.32 696.651 1968.36 689.354C1966.11 685.239 1962.14 685.386 1958.85 684.7C1904.79 673.415 1850.42 663.831 1795.92 654.941C1777.38 651.916 1776.47 652.662 1776.47 671.202C1776.45 811.067 1776.48 950.933 1776.45 1090.8C1776.45 1116.57 1774.95 1117.73 1749.7 1114.68C1738.15 1113.29 1726.73 1110.97 1715.08 1110.22C1709.43 1109.85 1704.85 1111.26 1700.37 1114.85C1691.55 1121.92 1682.65 1128.92 1673.86 1136.02C1669.52 1139.53 1665.01 1141.73 1658.73 1142.28C1658.74 1126.87 1662.56 1111.99 1664.62 1096.84C1666.15 1085.64 1668.3 1074.53 1670.14 1063.37C1671.57 1054.69 1671.56 1054.6 1680.01 1055.58C1690.91 1056.85 1701.79 1058.36 1712.69 1059.6C1719.13 1060.33 1719.38 1060.01 1719.65 1053.46C1719.76 1050.8 1719.68 1048.14 1719.68 1045.47C1719.68 926.305 1719.68 807.137 1719.69 687.037C1718.18 681.416 1721.05 678.675 1724.11 675.934C1731.3 669.508 1738.75 663.422 1746.4 657.558C1749.21 655.402 1752.55 653.605 1753.9 649.171C1733.14 645.649 1712.49 642.951 1691.83 640.435C1655.61 636.023 1619.3 632.503 1583.01 628.697C1582.02 628.593 1581.02 628.534 1580.03 628.469C1564.76 627.468 1562.35 630.007 1565.14 645.374C1566.89 654.986 1566.24 664.587 1566.07 674.209C1565.98 678.738 1564.25 682.749 1561.06 685.854C1550.07 696.521 1540.83 708.78 1529.92 719.513C1525.96 723.407 1521.46 725.855 1515.39 726.515C1513.26 702.25 1511.77 678.329 1510.41 654.399C1509.06 630.464 1507.85 606.52 1506.57 582.579C1506.08 573.44 1506.1 573.16 1515.91 573.885C1544.13 575.974 1572.37 577.887 1600.53 580.659C1633.65 583.92 1666.7 587.926 1699.76 591.762C1743.74 596.864 1787.51 603.474 1831.18 610.701C1898.82 621.893 1966.07 635.127 2033.65 650.931C2036.33 657.778 2031.24 660.245 2027.38 663.027C2017.44 670.198 2006.94 676.559 1996.5 682.982C1990.91 686.42 1988.01 690.901 1988.27 697.656C1988.73 709.928 1985.5 722.001 1986.08 734.32C1986.45 741.984 1982.43 747.806 1976.55 751.993C1964.68 760.451 1953.12 769.342 1941.4 777.994C1937.98 780.511 1934.18 781.126 1929.54 781.853Z" fill="#F9D963"/>
<path d="M1658.24 1142.87C1672.17 1132.41 1685.12 1120.92 1698.65 1110.15C1703.63 1106.18 1708.05 1104.36 1714.86 1105.33C1729.65 1107.43 1744.48 1109.35 1759.25 1111.64C1761.21 1111.95 1763.23 1111.87 1765.23 1111.96C1769.77 1112.18 1772.05 1110.07 1772.02 1105.46C1771.99 1102.13 1772.07 1098.8 1772.07 1095.47C1772.08 951.576 1772.08 807.682 1772.08 663.788C1772.08 646.902 1772.04 647.172 1788.49 649.519C1849.4 658.209 1909.76 669.959 1970.04 682.128C1973.29 682.783 1976.48 683.692 1980.14 684.593C1979.3 689.472 1975.43 690.994 1972.27 693.001C1958.79 701.577 1945.21 709.998 1931.9 720.108C1898.97 713.248 1866.1 708.191 1833.37 702.37C1826.44 701.138 1826.01 701.741 1825.71 708.647C1825.67 709.644 1825.69 710.644 1825.69 711.642C1825.71 832.447 1825.72 953.253 1825.81 1074.99C1826.55 1081.39 1822.39 1084.18 1819.43 1087.68C1812.38 1096.05 1802.66 1101.68 1794.67 1111.18C1807.26 1114.84 1818.92 1116.68 1830.75 1117.26C1834.9 1117.46 1838.11 1114.57 1841.14 1111.86C1848.83 1104.98 1857.16 1098.88 1865.13 1092.35C1868.97 1089.21 1873 1086.05 1879.21 1086.5C1884 1093.92 1883.49 1102.43 1884.86 1110.49C1888.65 1132.78 1891.97 1155.15 1895.51 1177.71C1891.29 1180.11 1887.37 1178.15 1883.73 1177.48C1820.85 1165.83 1757.59 1156.63 1694.19 1148.37C1682.33 1146.83 1670.29 1146.55 1658.24 1142.87Z" fill="#FCC730"/>
<path d="M1217.92 900.216C1213.43 901.796 1210.25 903.432 1209.26 908.78C1207.02 920.786 1202.25 932.273 1201.7 945.539C1198.89 949.217 1198.67 952.987 1197.82 956.501C1185.09 1008.88 1172.38 1061.26 1159.66 1113.63C1159.19 1115.57 1158.46 1117.47 1158.21 1119.44C1157.6 1124.24 1155.14 1125.95 1150.21 1126.16C1125.27 1127.22 1100.34 1128.55 1075.42 1129.99C1054.15 1131.21 1032.91 1132.7 1010.72 1133.95C1023.48 1119.31 1037.2 1104.81 1050.88 1090.27C1054.75 1086.16 1059.34 1083.8 1065.06 1084.12C1078.75 1084.88 1092.27 1082.51 1105.89 1082C1114.24 1081.68 1114.43 1081.68 1116.56 1073.24C1124.48 1041.93 1132.29 1010.59 1140.13 979.259C1162.12 891.4 1184.07 803.531 1206.12 715.687C1213.9 684.685 1221.92 653.743 1229.84 622.775C1232.59 612.011 1232.6 611.955 1243.95 611.939C1270.27 611.902 1296.6 611.911 1322.92 611.944C1325.84 611.947 1328.84 611.505 1332.91 613.231C1321.43 629.929 1305.71 641.891 1292.48 656.929C1290.55 660.284 1288.15 662.125 1284.92 662.023C1275.95 661.739 1273.33 667.252 1271.49 674.853C1257.23 733.883 1242.19 792.726 1228.32 851.852C1224.61 867.65 1218.96 883.037 1217.92 900.216Z" fill="#FCC72F"/>
<path d="M1470.16 904.755C1458.27 915.891 1446.16 926.264 1434.15 936.742C1423.96 945.629 1422.99 945.337 1419.6 932.241C1400.28 857.571 1380.95 782.9 1361.57 708.245C1353.96 678.963 1346.36 649.68 1338.4 620.493C1336.53 613.612 1337.74 608.863 1343.03 603.849C1354.85 592.639 1365.99 580.715 1377.8 568.531C1381.34 570.083 1381.25 573.667 1382.08 576.766C1410.74 683.622 1439.36 790.488 1468 897.351C1468.6 899.596 1469.32 901.809 1470.16 904.755Z" fill="#FCC72F"/>
<path d="M1223.41 990.716C1231.27 981.807 1235.83 970.94 1242.12 961.264C1254.05 942.935 1248.08 946.212 1269.23 946.048C1299.16 945.816 1329.1 945.472 1359.01 946.249C1381.91 946.844 1404.89 946.941 1427.67 948.628C1444.2 949.852 1460.9 948.337 1477.31 951.715C1484.46 953.187 1490.38 950.807 1496.11 945.369C1508.35 933.749 1521.6 923.189 1535.08 912.014C1534.86 928.118 1531.21 944.034 1529.27 960.182C1527.92 971.39 1525.64 982.487 1524.3 993.695C1523.66 999.017 1521.23 1000.32 1516.38 999.777C1509.51 999.014 1502.59 998.668 1494.24 998.033C1496.86 1012.3 1498.88 1025.54 1503.3 1038.99C1503.7 1044.1 1500.69 1046.89 1497.56 1049.35C1487.37 1057.38 1478.34 1066.75 1468.25 1074.91C1459.09 1082.33 1453.29 1080.91 1450.24 1069.44C1445.21 1050.48 1440.64 1031.4 1435.88 1012.37C1432.41 998.536 1432.28 998.345 1417.66 998.382C1404.02 998.416 1390.42 998.358 1376.38 994.354C1368.99 991.064 1361.91 992.219 1355.04 992.184C1314.94 991.981 1274.83 992.057 1234.73 991.977C1231.12 991.97 1227.44 992.69 1223.41 990.716Z" fill="#FCC72F"/>
<path d="M1515.06 726.814C1523.94 721.106 1530.31 712.784 1537.15 705.238C1543.4 698.345 1549.58 691.388 1556.29 684.965C1560.44 680.989 1562.46 676.651 1562.09 670.864C1561.54 662.265 1562.23 653.65 1560.57 645.035C1559.52 639.567 1560.1 633.774 1560.06 628.126C1560.04 623.845 1562.07 622.609 1566.44 623.049C1598.1 626.237 1629.84 628.677 1661.44 632.321C1690.08 635.624 1718.77 638.745 1747.21 643.629C1752.71 644.573 1758.58 643.432 1763.81 646.777C1764.23 650.487 1761.02 651.641 1758.87 653.36C1745.91 663.708 1732.75 673.803 1720.08 685.546C1705.41 682.841 1690.78 682.001 1676.31 680.129C1660.5 678.084 1644.63 676.546 1628.79 674.793C1626.48 674.538 1624.17 674.194 1621.85 674.096C1614.23 673.775 1613.98 673.821 1614.27 681.616C1614.85 697.214 1615.73 712.801 1616.5 728.391C1616.9 736.413 1616.9 736.678 1608.62 736.019C1588.75 734.438 1568.89 732.749 1549.07 730.77C1537.85 729.651 1526.46 730.374 1515.06 726.814Z" fill="#FCC730"/>
<path d="M1375.66 994.986C1379.74 991.033 1384.67 991.547 1389.07 992.357C1400.64 994.488 1412.26 993.806 1423.87 993.983C1435.92 994.167 1435.97 994.086 1439.02 1006.19C1444.05 1026.16 1448.99 1046.16 1454.02 1066.14C1454.9 1069.63 1455.37 1073.29 1457.3 1076.43C1460.72 1077.4 1462.13 1074.64 1464 1072.99C1475.72 1062.7 1487.37 1052.32 1499.09 1042.03C1500.06 1041.17 1501.36 1040.7 1503.13 1039.81C1524.92 1040.29 1546.03 1041.77 1567.43 1045.21C1561.87 1058.93 1549.25 1065.5 1539.54 1074.85C1536.71 1077.57 1533.27 1079.76 1530.55 1082.68C1524.28 1089.42 1516.56 1091.03 1507.79 1089.58C1494.02 1087.29 1479.97 1088.61 1466.16 1086.4C1458.33 1085.15 1452.07 1088.32 1446.85 1094.35C1438.79 1103.66 1428.24 1110.36 1419.8 1119.33C1416.72 1122.6 1412.53 1123.87 1407.6 1124.45C1400.71 1099.03 1394.42 1074.01 1388.3 1048.94C1383.99 1031.26 1379.91 1013.51 1375.66 994.986Z" fill="#F9D962"/>
<path d="M1929.25 782.301C1943.47 770.977 1958.05 760.032 1972.9 749.471C1979.44 744.817 1982.7 739.258 1982.04 731.034C1980.98 717.763 1984.87 704.69 1984.13 691.386C1983.84 686.339 1987.28 683.748 1991.06 681.331C2002.5 674 2013.93 666.633 2025.26 659.122C2028.26 657.137 2031.77 655.701 2034.07 651.861C2037.71 651.874 2037.38 654.318 2037.25 656.695C2034.71 703.586 2032.2 750.478 2029.63 797.367C2029.27 803.916 2028.98 804.136 2022.47 802.748C1991.55 796.151 1960.64 789.48 1929.25 782.301Z" fill="#FCC630"/>
<path d="M1407.44 1124.64C1409.21 1123.36 1410.96 1121.86 1412.67 1120.25C1424.28 1109.33 1436.08 1098.61 1447.49 1087.47C1451.64 1083.42 1456.03 1081.54 1461.72 1081.98C1477.91 1083.22 1494.14 1084.06 1510.29 1085.64C1517.14 1086.31 1522.14 1084.63 1527.3 1079.91C1540.01 1068.3 1553.39 1057.42 1567.16 1046.08C1568.13 1056.32 1565.35 1066.35 1563.98 1076.54C1561.71 1093.35 1559.04 1110.11 1556.38 1126.87C1555.21 1134.2 1555.02 1134.32 1547.46 1133.83C1525.2 1132.37 1502.96 1130.62 1480.7 1129.3C1458.43 1127.99 1436.14 1127.08 1413.85 1125.95C1411.88 1125.86 1409.92 1125.46 1407.44 1124.64Z" fill="#FCC630"/>
<path d="M1879.24 1085.97C1867.23 1096.6 1854.46 1106.66 1841.95 1117.03C1837.26 1120.92 1832.25 1122.76 1826.32 1121.81C1814.54 1119.92 1802.76 1117.95 1791.01 1115.89C1786.62 1115.12 1786.11 1113.51 1789.2 1110.02C1791.83 1107.03 1794.52 1103.97 1797.69 1101.61C1807.59 1094.21 1815.51 1084.7 1825.34 1076.29C1843.45 1079.12 1861.02 1082.33 1879.24 1085.97Z" fill="#F9D962"/>
<path d="M533.234 803.976C529.914 784.441 530.056 764.766 528.713 745.186C526.845 717.959 525.655 690.685 524.288 663.426C523.786 653.431 523.909 653.322 533.724 651.062C599.218 635.985 665.109 622.923 731.393 611.791C784.885 602.807 838.56 595.128 892.416 588.758C928.764 584.459 965.163 580.57 1001.67 577.837C1017.93 576.62 1034.19 575.345 1051.33 574.258C1051.44 585.855 1042.16 591.321 1034.84 597.582C1025.98 605.168 1018.07 613.639 1009.62 621.593C1006.32 624.7 1004.27 628.381 1004.41 633.002C1004.82 645.968 1001.4 658.706 1002.19 671.696C1002.63 679.099 999.926 685.157 994.68 690.464C983.489 701.786 971.875 712.706 961.856 725.164C957.662 730.378 952.371 734.409 944.964 736.084C943.158 726.093 944.377 716.291 944.791 706.475C945.219 696.311 945.721 686.151 946.09 675.069C945.217 669.11 948.576 666.082 951.634 663.074C960.407 654.444 968.486 645.087 978.44 637.68C980.734 635.972 983.383 634.231 983.959 630.287C971.281 629.226 958.91 631.46 946.582 632.78C900.305 637.734 854.058 642.995 808.042 650.085C793.117 652.384 792.484 652.887 792.48 668.543C792.441 808.441 792.465 948.34 792.456 1088.24C792.455 1093.9 792.422 1099.56 792.272 1105.22C792.045 1113.83 787.852 1118.79 779.323 1120.28C762.612 1123.2 745.85 1125.81 729.089 1128.4C719.641 1129.86 712.353 1133.96 706.541 1141.59C699.082 1151.38 689.86 1159.66 682.011 1169.16C678.401 1173.53 673.827 1177 667.103 1178.15C668.158 1158.24 672.18 1138.65 674.995 1118.89C676.216 1110.31 677.803 1101.79 678.934 1093.21C679.547 1088.57 681.521 1086.47 686.433 1085.75C699.934 1083.76 713.351 1081.18 726.77 1078.67C734.442 1077.23 734.418 1077.09 734.578 1069.06C734.605 1067.73 734.585 1066.4 734.585 1065.07C734.585 948.084 734.588 831.102 734.571 714.12C734.57 710.793 734.362 707.466 734.026 703.247C733.648 694.856 738.845 690.231 743.409 685.587C752.224 676.616 759.955 666.75 769.388 656.643C757.367 655.928 747.119 659.032 736.811 660.709C688.263 668.606 639.996 678.049 591.847 688.091C580.983 690.357 580.488 691.319 581.668 701.959C583.065 714.549 582.013 727.243 582.83 739.879C583.091 743.924 580.781 747.469 578.383 750.789C567.473 765.892 555.963 780.546 545.012 795.617C542.184 799.508 538.051 801.729 533.234 803.976Z" fill="#F9D962"/>
<path d="M666.512 1178.86C679.39 1167.24 689.858 1153.74 700.938 1140.97C709.172 1131.47 717.325 1124.64 730.58 1123.47C746.759 1122.05 762.756 1118.55 778.832 1115.94C786.585 1114.69 787.658 1113.52 787.937 1105.66C788.043 1102.66 787.964 1099.66 787.964 1096.66C787.964 952.044 787.963 807.426 787.966 662.807C787.966 647.517 788.013 647.817 803.184 645.921C825.927 643.08 848.572 639.439 871.331 636.754C891.779 634.341 912.175 631.471 932.726 629.851C949.27 628.546 965.739 626.3 982.246 624.524C986.756 624.039 991.31 623.35 997.641 625.305C980.117 641.984 963.609 657.695 946.544 673.777C913.606 677.698 881.191 680.983 848.943 685.661C841.023 686.809 840.992 686.873 840.822 694.736C840.729 699.059 840.799 703.386 840.799 707.71C840.786 824.814 840.774 941.918 840.677 1059.87C842.258 1065.09 840.137 1068.29 837.618 1071.62C828.6 1083.56 818.983 1095.02 809.693 1106.82C810.971 1107.37 811.988 1106.28 813.129 1106.37C836.054 1108.19 849.298 1093.49 862.232 1077.93C869.18 1069.57 875.472 1060.19 887.663 1057.44C891.984 1069.47 892.801 1081.8 895.018 1093.87C897.724 1108.59 900.006 1123.4 902.24 1138.21C903.255 1144.94 902.977 1145.2 896.773 1145.9C848.476 1151.39 800.344 1158.07 752.382 1165.95C727.094 1170.1 701.866 1174.62 676.614 1178.99C673.357 1179.55 670.147 1180.73 666.512 1178.86Z" fill="#FDC72F"/>
<path d="M532.81 804.523C547.167 784.652 561.854 765.368 576.527 746.072C578.395 743.615 579.384 740.974 578.892 737.723C576.803 723.907 578.921 709.867 576.343 695.991C574.879 688.11 576.348 686.67 584.163 685.071C615.722 678.612 647.277 672.11 678.938 666.182C704.378 661.42 729.967 657.454 755.493 653.151C761.378 652.16 767.265 651.172 773.172 650.324C775.056 650.053 777.439 649.488 778.421 651.801C779.377 654.052 777.345 655.462 775.998 656.803C768.693 664.078 761.888 671.791 755.175 679.615C748.698 687.165 741.707 694.273 734.372 701.965C705.388 707.576 676.976 712.797 648.563 718.017C647.256 718.257 645.943 718.463 644.642 718.73C629.525 721.823 629.153 721.858 630.484 736.923C631.656 750.185 631.888 763.466 632.536 776.738C632.907 784.344 632.939 784.378 625.727 785.898C603.304 790.622 580.887 795.372 558.443 799.996C550.015 801.732 541.802 804.551 532.81 804.523Z" fill="#FAC431"/>
<path d="M944.655 736.541C951.776 729.413 958.544 722.166 965.148 714.654C973.479 705.177 982.564 696.336 991.655 687.563C996.043 683.329 998.435 678.797 997.972 672.628C996.898 658.3 1000.76 644.192 1000.06 629.871C999.826 624.974 1003.01 622.058 1006 618.862C1017.82 606.207 1031.44 595.465 1043.68 583.266C1046.27 580.684 1048.81 578.048 1051.79 574.928C1055.92 579.926 1053.54 585.961 1053.31 591.644C1052.42 613.546 1050.95 635.425 1049.73 657.315C1048.53 678.872 1047.18 700.423 1046.32 721.994C1046.09 727.775 1043.49 729.232 1038.41 729.593C1019.53 730.939 1000.66 732.535 981.784 734.07C969.55 735.065 957.322 736.117 944.655 736.541Z" fill="#FCC630"/>
<path d="M887.805 1057.06C881.795 1061.9 876.66 1067.72 871.814 1073.55C863.708 1083.29 854.338 1091.84 846.323 1101.62C843.883 1104.59 841.245 1107.01 837.45 1107.57C826.938 1109.13 816.401 1110.51 805.865 1111.9C804.593 1112.07 803.228 1112 801.747 1109.94C814.337 1094.14 827.105 1078.12 840.232 1061.42C852.407 1060.81 863.932 1058.13 875.625 1057.02C879.512 1056.66 883.34 1055.51 887.805 1057.06Z" fill="#F9D962"/>
<path d="M377.553 736.295C377.653 736.602 377.257 737.099 376.357 737.778C376.247 737.461 376.648 736.969 377.553 736.295Z" fill="#FDC730"/>
<path d="M2294.47 766.582C2296.8 763.32 2299.98 764.487 2303.24 765.338C2312.88 767.852 2322.37 770.768 2331.76 774.146C2345.19 778.978 2359.1 782.562 2372.28 787.954C2389.19 794.873 2407.14 798.838 2423.7 806.651C2425.74 807.612 2428.21 807.657 2430.46 808.174C2434.43 809.081 2438.26 810.198 2439.82 815.428C2427.78 813.975 2416.65 808.6 2405.15 804.493C2371.74 792.569 2337.93 781.863 2304.36 770.423C2301.23 769.355 2298.15 768.156 2294.47 766.582Z" fill="#FAD962"/>
<path d="M2446.4 818.667C2447.1 817.065 2448.62 815.837 2450.19 816.37C2457.75 818.931 2465.76 820.639 2471.77 827.458C2463.19 826.303 2455.01 822.854 2446.4 818.667Z" fill="#FAD962"/>
<path d="M2511.66 817.769C2511.1 818.7 2510.14 819.3 2508.62 820.029C2508.46 818.465 2508.66 816.531 2511.66 817.769Z" fill="#FAD962"/>
<path d="M1218.87 900.91C1213.21 900.961 1211.61 899.175 1212.89 894.159C1218.3 872.938 1223.33 851.621 1228.55 830.351C1241.76 776.536 1255 722.728 1268.23 668.918C1268.63 667.308 1269.35 665.736 1269.49 664.11C1269.96 658.541 1273.19 656.957 1278.29 657.295C1282.26 657.557 1286.26 657.353 1291.17 657.39C1299.67 687.726 1307.29 718.017 1314.82 748.333C1326.51 795.427 1338.16 842.532 1349.73 889.657C1350.5 892.804 1351.96 895.936 1351.16 900.48C1307.41 900.387 1263.59 899.554 1218.87 900.91Z" fill="#832533"/>
<path d="M1266 813.952C1270.12 798.466 1274.08 783.781 1278.04 769.096C1278.53 769.117 1279.02 769.138 1279.51 769.159C1279.68 771.559 1279.98 773.958 1279.99 776.358C1280.02 803.335 1280.06 830.312 1279.99 857.288C1279.97 867.52 1279.52 867.939 1269.25 867.985C1251.42 868.064 1249.68 869.49 1255.62 851.274C1259.54 839.268 1262.47 826.938 1266 813.952Z" fill="#A61930"/>
</g>
<defs>
<clipPath id="clip0_101_2">
<rect width="2560" height="1765" fill="white"/>
</clipPath>
</defs>
</svg>